<mxfile host="app.diagrams.net" agent="Mozilla/5.0 (Windows NT 10.0; Win64; x64) AppleWebKit/537.36 (KHTML, like Gecko) Chrome/127.0.0.0 Safari/537.36" version="24.7.7" pages="3">
  <diagram name="Infra Estrutura de comunicação" id="r31mNQXhlYBbTmS-FtaR">
    <mxGraphModel dx="2074" dy="738" grid="1" gridSize="10" guides="1" tooltips="1" connect="1" arrows="1" fold="1" page="1" pageScale="1" pageWidth="827" pageHeight="1169" math="0" shadow="0">
      <root>
        <mxCell id="0" />
        <mxCell id="1" parent="0" />
        <mxCell id="mFi_zFzauyfVC6vekm5a-9" style="edgeStyle=orthogonalEdgeStyle;rounded=0;orthogonalLoop=1;jettySize=auto;html=1;" parent="1" source="mFi_zFzauyfVC6vekm5a-2" target="mFi_zFzauyfVC6vekm5a-5" edge="1">
          <mxGeometry relative="1" as="geometry" />
        </mxCell>
        <mxCell id="mFi_zFzauyfVC6vekm5a-2" value="" style="shape=image;html=1;verticalAlign=top;verticalLabelPosition=bottom;labelBackgroundColor=#ffffff;imageAspect=0;aspect=fixed;image=https://cdn3.iconfinder.com/data/icons/essential-rounded/64/Rounded-31-128.png" parent="1" vertex="1">
          <mxGeometry x="40" y="435" width="90" height="90" as="geometry" />
        </mxCell>
        <mxCell id="mFi_zFzauyfVC6vekm5a-16" style="edgeStyle=orthogonalEdgeStyle;rounded=0;orthogonalLoop=1;jettySize=auto;html=1;" parent="1" source="mFi_zFzauyfVC6vekm5a-3" target="mFi_zFzauyfVC6vekm5a-4" edge="1">
          <mxGeometry relative="1" as="geometry" />
        </mxCell>
        <mxCell id="mFi_zFzauyfVC6vekm5a-3" value="" style="shape=datastore;html=1;labelPosition=center;verticalLabelPosition=bottom;align=center;verticalAlign=top;" parent="1" vertex="1">
          <mxGeometry x="236" y="130" width="100" height="100" as="geometry" />
        </mxCell>
        <mxCell id="mFi_zFzauyfVC6vekm5a-4" value="" style="image;aspect=fixed;html=1;points=[];align=center;fontSize=12;image=img/lib/azure2/blockchain/Azure_Blockchain_Service.svg;" parent="1" vertex="1">
          <mxGeometry x="84.5" y="146" width="68" height="68" as="geometry" />
        </mxCell>
        <mxCell id="mFi_zFzauyfVC6vekm5a-10" style="edgeStyle=orthogonalEdgeStyle;rounded=0;orthogonalLoop=1;jettySize=auto;html=1;" parent="1" source="mFi_zFzauyfVC6vekm5a-5" target="mFi_zFzauyfVC6vekm5a-6" edge="1">
          <mxGeometry relative="1" as="geometry" />
        </mxCell>
        <mxCell id="mFi_zFzauyfVC6vekm5a-14" style="edgeStyle=orthogonalEdgeStyle;rounded=0;orthogonalLoop=1;jettySize=auto;html=1;" parent="1" source="mFi_zFzauyfVC6vekm5a-5" target="mFi_zFzauyfVC6vekm5a-13" edge="1">
          <mxGeometry relative="1" as="geometry" />
        </mxCell>
        <mxCell id="mFi_zFzauyfVC6vekm5a-5" value="" style="sketch=0;pointerEvents=1;shadow=0;dashed=0;html=1;strokeColor=none;fillColor=#505050;labelPosition=center;verticalLabelPosition=bottom;verticalAlign=top;outlineConnect=0;align=center;shape=mxgraph.office.sites.my_site;" parent="1" vertex="1">
          <mxGeometry x="232" y="430" width="108" height="100" as="geometry" />
        </mxCell>
        <mxCell id="mFi_zFzauyfVC6vekm5a-21" style="edgeStyle=orthogonalEdgeStyle;rounded=0;orthogonalLoop=1;jettySize=auto;html=1;" parent="1" source="mFi_zFzauyfVC6vekm5a-6" target="mFi_zFzauyfVC6vekm5a-20" edge="1">
          <mxGeometry relative="1" as="geometry" />
        </mxCell>
        <mxCell id="mFi_zFzauyfVC6vekm5a-6" value="" style="sketch=0;pointerEvents=1;shadow=0;dashed=0;html=1;strokeColor=none;labelPosition=center;verticalLabelPosition=bottom;verticalAlign=top;align=center;fillColor=#515151;shape=mxgraph.mscae.system_center.secondary_site" parent="1" vertex="1">
          <mxGeometry x="470" y="425" width="90" height="110" as="geometry" />
        </mxCell>
        <mxCell id="mFi_zFzauyfVC6vekm5a-15" style="edgeStyle=orthogonalEdgeStyle;rounded=0;orthogonalLoop=1;jettySize=auto;html=1;" parent="1" source="mFi_zFzauyfVC6vekm5a-13" target="mFi_zFzauyfVC6vekm5a-3" edge="1">
          <mxGeometry relative="1" as="geometry" />
        </mxCell>
        <mxCell id="mFi_zFzauyfVC6vekm5a-13" value="" style="outlineConnect=0;dashed=0;verticalLabelPosition=bottom;verticalAlign=top;align=center;html=1;shape=mxgraph.aws3.android;fillColor=#EE472A;gradientColor=none;" parent="1" vertex="1">
          <mxGeometry x="249.25" y="290" width="73.5" height="84" as="geometry" />
        </mxCell>
        <mxCell id="mFi_zFzauyfVC6vekm5a-17" value="Usuario&amp;nbsp;" style="text;strokeColor=none;fillColor=none;html=1;fontSize=24;fontStyle=1;verticalAlign=middle;align=center;whiteSpace=wrap;" parent="1" vertex="1">
          <mxGeometry x="17.5" y="510" width="135" height="50" as="geometry" />
        </mxCell>
        <mxCell id="mFi_zFzauyfVC6vekm5a-18" value="Tesouraria Digital - FrontEnd" style="text;strokeColor=none;fillColor=none;html=1;fontSize=24;fontStyle=1;verticalAlign=middle;align=center;whiteSpace=wrap;" parent="1" vertex="1">
          <mxGeometry x="218.5" y="535" width="135" height="95" as="geometry" />
        </mxCell>
        <mxCell id="mFi_zFzauyfVC6vekm5a-19" value="PLEX" style="text;strokeColor=none;fillColor=none;html=1;fontSize=24;fontStyle=1;verticalAlign=middle;align=center;whiteSpace=wrap;" parent="1" vertex="1">
          <mxGeometry x="447.5" y="535" width="135" height="50" as="geometry" />
        </mxCell>
        <mxCell id="mFi_zFzauyfVC6vekm5a-20" value="" style="sketch=0;outlineConnect=0;fontColor=#232F3E;gradientColor=none;fillColor=#7AA116;strokeColor=none;dashed=0;verticalLabelPosition=bottom;verticalAlign=top;align=center;html=1;fontSize=12;fontStyle=0;aspect=fixed;pointerEvents=1;shape=mxgraph.aws4.bank;" parent="1" vertex="1">
          <mxGeometry x="680" y="441" width="78" height="78" as="geometry" />
        </mxCell>
        <mxCell id="mFi_zFzauyfVC6vekm5a-22" value="Banco DOCK" style="text;strokeColor=none;fillColor=none;html=1;fontSize=24;fontStyle=1;verticalAlign=middle;align=center;whiteSpace=wrap;" parent="1" vertex="1">
          <mxGeometry x="651.5" y="525" width="135" height="50" as="geometry" />
        </mxCell>
        <mxCell id="mFi_zFzauyfVC6vekm5a-25" value="BanckEnd" style="text;strokeColor=none;fillColor=none;html=1;fontSize=24;fontStyle=1;verticalAlign=middle;align=center;whiteSpace=wrap;" parent="1" vertex="1">
          <mxGeometry x="322.75" y="307" width="135" height="50" as="geometry" />
        </mxCell>
        <mxCell id="mFi_zFzauyfVC6vekm5a-26" value="Banco de dados" style="text;strokeColor=none;fillColor=none;html=1;fontSize=24;fontStyle=1;verticalAlign=middle;align=center;whiteSpace=wrap;" parent="1" vertex="1">
          <mxGeometry x="340" y="159" width="135" height="50" as="geometry" />
        </mxCell>
        <mxCell id="mFi_zFzauyfVC6vekm5a-28" value="BlochChain" style="text;strokeColor=none;fillColor=none;html=1;fontSize=24;fontStyle=1;verticalAlign=middle;align=center;whiteSpace=wrap;" parent="1" vertex="1">
          <mxGeometry x="51" y="230" width="135" height="50" as="geometry" />
        </mxCell>
      </root>
    </mxGraphModel>
  </diagram>
  <diagram id="HyRGngIoaktzdJjp7ZNS" name="Cadastro Usuario">
    <mxGraphModel dx="2016" dy="868" grid="1" gridSize="10" guides="1" tooltips="1" connect="1" arrows="1" fold="1" page="1" pageScale="1" pageWidth="827" pageHeight="1169" math="0" shadow="0">
      <root>
        <mxCell id="0" />
        <mxCell id="1" parent="0" />
        <mxCell id="AH1adNombmmw1FnsNmIA-6" value="CPF/CNPJ" style="fillColor=none;strokeColor=none;align=left;fontSize=14;fontColor=#212529;" vertex="1" parent="1">
          <mxGeometry width="260" height="40" relative="1" as="geometry">
            <mxPoint x="40" y="260" as="offset" />
          </mxGeometry>
        </mxCell>
        <mxCell id="AH1adNombmmw1FnsNmIA-7" value="" style="html=1;shadow=0;dashed=0;shape=mxgraph.bootstrap.rrect;rSize=5;fillColor=none;strokeColor=#999999;align=left;spacing=15;fontSize=14;fontColor=#6C767D;" vertex="1" parent="1">
          <mxGeometry width="390" height="30" relative="1" as="geometry">
            <mxPoint x="40" y="300" as="offset" />
          </mxGeometry>
        </mxCell>
        <mxCell id="AH1adNombmmw1FnsNmIA-13" value="Nome" style="fillColor=none;strokeColor=none;align=left;fontSize=14;" vertex="1" parent="1">
          <mxGeometry x="40" y="40" width="100" height="30" as="geometry" />
        </mxCell>
        <mxCell id="AH1adNombmmw1FnsNmIA-15" value="Sobrenome" style="fillColor=none;strokeColor=none;align=left;fontSize=14;" vertex="1" parent="1">
          <mxGeometry x="310" y="40" width="100" height="30" as="geometry" />
        </mxCell>
        <mxCell id="AH1adNombmmw1FnsNmIA-20" value="Cidade" style="fillColor=none;strokeColor=none;align=left;fontSize=14;" vertex="1" parent="1">
          <mxGeometry x="40" y="120" width="100" height="30" as="geometry" />
        </mxCell>
        <mxCell id="AH1adNombmmw1FnsNmIA-22" value="Estado" style="fillColor=none;strokeColor=none;align=left;fontSize=14;" vertex="1" parent="1">
          <mxGeometry x="314" y="120" width="100" height="30" as="geometry" />
        </mxCell>
        <mxCell id="AH1adNombmmw1FnsNmIA-26" value="Cep" style="fillColor=none;strokeColor=none;align=left;fontSize=14;" vertex="1" parent="1">
          <mxGeometry x="580" y="120" width="190" height="30" as="geometry" />
        </mxCell>
        <mxCell id="AH1adNombmmw1FnsNmIA-30" value="Email" style="fillColor=none;strokeColor=none;align=left;fontSize=14;fontColor=#212529;" vertex="1" parent="1">
          <mxGeometry x="440" y="270" width="400" height="30" as="geometry" />
        </mxCell>
        <mxCell id="AH1adNombmmw1FnsNmIA-31" value="" style="html=1;shadow=0;dashed=0;shape=mxgraph.bootstrap.rrect;rSize=5;fillColor=none;strokeColor=#999999;align=left;spacing=15;fontSize=14;fontColor=#6C767D;" vertex="1" parent="1">
          <mxGeometry x="440" y="300" width="395" height="30" as="geometry" />
        </mxCell>
        <mxCell id="AH1adNombmmw1FnsNmIA-32" value="Confirma senha" style="fillColor=none;strokeColor=none;align=left;fontSize=14;fontColor=#212529;" vertex="1" parent="1">
          <mxGeometry x="440" y="340" width="400" height="30" as="geometry" />
        </mxCell>
        <mxCell id="AH1adNombmmw1FnsNmIA-33" value="" style="html=1;shadow=0;dashed=0;shape=mxgraph.bootstrap.rrect;rSize=5;fillColor=none;strokeColor=#999999;align=left;spacing=15;fontSize=14;fontColor=#6C767D;" vertex="1" parent="1">
          <mxGeometry x="445" y="370" width="395" height="30" as="geometry" />
        </mxCell>
        <mxCell id="AH1adNombmmw1FnsNmIA-34" value="Endereço" style="fillColor=none;strokeColor=none;align=left;fontSize=14;fontColor=#212529;" vertex="1" parent="1">
          <mxGeometry x="40" y="190" width="390" height="30" as="geometry" />
        </mxCell>
        <mxCell id="AH1adNombmmw1FnsNmIA-35" value="1234 Main St" style="html=1;shadow=0;dashed=0;shape=mxgraph.bootstrap.rrect;rSize=5;fillColor=none;strokeColor=#999999;align=left;spacing=15;fontSize=14;fontColor=#6C767D;" vertex="1" parent="1">
          <mxGeometry x="40" y="220" width="800" height="30" as="geometry" />
        </mxCell>
        <mxCell id="AH1adNombmmw1FnsNmIA-46" value="Sign in" style="html=1;shadow=0;dashed=0;shape=mxgraph.bootstrap.rrect;rSize=5;fillColor=#0085FC;strokeColor=none;align=center;fontSize=14;fontColor=#FFFFFF;" vertex="1" parent="1">
          <mxGeometry x="727" y="420" width="100" height="40" as="geometry" />
        </mxCell>
        <mxCell id="AH1adNombmmw1FnsNmIA-47" value="" style="html=1;shadow=0;dashed=0;shape=mxgraph.bootstrap.rrect;rSize=5;fillColor=none;strokeColor=#999999;align=left;spacing=15;fontSize=14;fontColor=#6C767D;" vertex="1" parent="1">
          <mxGeometry x="40" y="80" width="260" height="30" as="geometry" />
        </mxCell>
        <mxCell id="AH1adNombmmw1FnsNmIA-48" value="" style="html=1;shadow=0;dashed=0;shape=mxgraph.bootstrap.rrect;rSize=5;fillColor=none;strokeColor=#999999;align=left;spacing=15;fontSize=14;fontColor=#6C767D;" vertex="1" parent="1">
          <mxGeometry x="310" y="80" width="260" height="30" as="geometry" />
        </mxCell>
        <mxCell id="AH1adNombmmw1FnsNmIA-49" value="" style="html=1;shadow=0;dashed=0;shape=mxgraph.bootstrap.rrect;rSize=5;fillColor=none;strokeColor=#999999;align=left;spacing=15;fontSize=14;fontColor=#6C767D;" vertex="1" parent="1">
          <mxGeometry x="40" y="150" width="260" height="30" as="geometry" />
        </mxCell>
        <mxCell id="AH1adNombmmw1FnsNmIA-50" value="" style="html=1;shadow=0;dashed=0;shape=mxgraph.bootstrap.rrect;rSize=5;fillColor=none;strokeColor=#999999;align=left;spacing=15;fontSize=14;fontColor=#6C767D;" vertex="1" parent="1">
          <mxGeometry x="310" y="150" width="260" height="30" as="geometry" />
        </mxCell>
        <mxCell id="AH1adNombmmw1FnsNmIA-51" value="" style="html=1;shadow=0;dashed=0;shape=mxgraph.bootstrap.rrect;rSize=5;fillColor=none;strokeColor=#999999;align=left;spacing=15;fontSize=14;fontColor=#6C767D;" vertex="1" parent="1">
          <mxGeometry x="580" y="150" width="260" height="30" as="geometry" />
        </mxCell>
        <mxCell id="AH1adNombmmw1FnsNmIA-52" value="Senha" style="fillColor=none;strokeColor=none;align=left;fontSize=14;fontColor=#212529;" vertex="1" parent="1">
          <mxGeometry x="40" y="340" width="400" height="30" as="geometry" />
        </mxCell>
        <mxCell id="AH1adNombmmw1FnsNmIA-53" value="" style="html=1;shadow=0;dashed=0;shape=mxgraph.bootstrap.rrect;rSize=5;fillColor=none;strokeColor=#999999;align=left;spacing=15;fontSize=14;fontColor=#6C767D;" vertex="1" parent="1">
          <mxGeometry x="45" y="370" width="395" height="30" as="geometry" />
        </mxCell>
      </root>
    </mxGraphModel>
  </diagram>
  <diagram id="P0t9KzrNodGsaRFYRurn" name="Login">
    <mxGraphModel dx="1714" dy="738" grid="1" gridSize="10" guides="1" tooltips="1" connect="1" arrows="1" fold="1" page="1" pageScale="1" pageWidth="827" pageHeight="1169" math="0" shadow="0">
      <root>
        <mxCell id="0" />
        <mxCell id="1" parent="0" />
        <mxCell id="NYS647m86gorgI4VtkIJ-1" value="Login" style="html=1;shadow=0;dashed=0;shape=mxgraph.bootstrap.rrect;rSize=5;html=1;strokeColor=#C8C8C8;fillColor=#ffffff;whiteSpace=wrap;verticalAlign=top;align=left;fontSize=18;spacing=15;spacingTop=-5;" vertex="1" parent="1">
          <mxGeometry x="210" y="200" width="400" height="370" as="geometry" />
        </mxCell>
        <mxCell id="NYS647m86gorgI4VtkIJ-2" value="" style="shape=line;strokeColor=#dddddd;resizeWidth=1;" vertex="1" parent="NYS647m86gorgI4VtkIJ-1">
          <mxGeometry width="400" height="10" relative="1" as="geometry">
            <mxPoint y="50" as="offset" />
          </mxGeometry>
        </mxCell>
        <mxCell id="NYS647m86gorgI4VtkIJ-3" value="" style="html=1;shadow=0;dashed=0;shape=mxgraph.bootstrap.x;strokeColor=#868686;strokeWidth=2;" vertex="1" parent="NYS647m86gorgI4VtkIJ-1">
          <mxGeometry x="1" width="8" height="8" relative="1" as="geometry">
            <mxPoint x="-24" y="20" as="offset" />
          </mxGeometry>
        </mxCell>
        <mxCell id="NYS647m86gorgI4VtkIJ-4" value="Cpf ou Email" style="strokeColor=none;fillColor=none;resizeWidth=1;align=left;verticalAlign=top;spacing=10;fontSize=14;whiteSpace=wrap;html=1;" vertex="1" parent="NYS647m86gorgI4VtkIJ-1">
          <mxGeometry width="400" height="40" relative="1" as="geometry">
            <mxPoint y="60" as="offset" />
          </mxGeometry>
        </mxCell>
        <mxCell id="NYS647m86gorgI4VtkIJ-5" value="" style="html=1;shadow=0;dashed=0;shape=mxgraph.bootstrap.rrect;rSize=5;strokeColor=#CED4DA;fillColor=none;align=left;verticalAlign=middle;spacing=10;fontSize=14;whiteSpace=wrap;html=1;" vertex="1" parent="NYS647m86gorgI4VtkIJ-1">
          <mxGeometry width="380" height="40" relative="1" as="geometry">
            <mxPoint x="10" y="100" as="offset" />
          </mxGeometry>
        </mxCell>
        <mxCell id="NYS647m86gorgI4VtkIJ-6" value="Senha" style="strokeColor=none;fillColor=none;resizeWidth=1;align=left;verticalAlign=top;spacing=10;fontSize=14;whiteSpace=wrap;html=1;" vertex="1" parent="NYS647m86gorgI4VtkIJ-1">
          <mxGeometry width="400" height="40" relative="1" as="geometry">
            <mxPoint y="160" as="offset" />
          </mxGeometry>
        </mxCell>
        <mxCell id="NYS647m86gorgI4VtkIJ-7" value="" style="html=1;shadow=0;dashed=0;shape=mxgraph.bootstrap.rrect;rSize=5;strokeColor=#CED4DA;fillColor=none;align=left;verticalAlign=middle;spacing=10;fontSize=14;whiteSpace=wrap;html=1;" vertex="1" parent="NYS647m86gorgI4VtkIJ-1">
          <mxGeometry width="380" height="40" relative="1" as="geometry">
            <mxPoint x="10" y="200" as="offset" />
          </mxGeometry>
        </mxCell>
        <mxCell id="NYS647m86gorgI4VtkIJ-8" value="" style="shape=line;strokeColor=#dddddd;resizeWidth=1;" vertex="1" parent="NYS647m86gorgI4VtkIJ-1">
          <mxGeometry width="400" height="10" relative="1" as="geometry">
            <mxPoint y="290" as="offset" />
          </mxGeometry>
        </mxCell>
        <mxCell id="NYS647m86gorgI4VtkIJ-9" value="Acessar" style="html=1;shadow=0;dashed=0;shape=mxgraph.bootstrap.rrect;rSize=5;fillColor=#0085FC;strokeColor=none;fontColor=#FFFFFF;fontSize=14;" vertex="1" parent="NYS647m86gorgI4VtkIJ-1">
          <mxGeometry x="1" y="1" width="110" height="40" relative="1" as="geometry">
            <mxPoint x="-130" y="-60" as="offset" />
          </mxGeometry>
        </mxCell>
      </root>
    </mxGraphModel>
  </diagram>
</mxfile>
